# Alias OBJ Model File
# Exported from SketchUp, (c) 2000-2012 Trimble Navigation Limited
# File units = meters

mtllib Lavička3.mtl

g Mesh1 Group1 Model

usemtl Material04
v 1.05711 0.711535 -0.224321
vt 10.9086 -1.89712
vn -7.39081e-13 -0.936479 0.350723
v -1.01289 0.711535 -0.224321
vt 10.9086 -0.0153049
v -1.01289 0.706274 -0.238368
vt 10.895 -0.0153049
v 1.05711 0.706274 -0.238368
vt 10.895 -1.89712
f 1/1/1 2/2/1 3/3/1 4/4/1 

v -1.01289 0.986877 -0.32744
vt 11.1794 -0.0179543
vn 1.0121e-11 0.350723 0.936479
vt 10.9121 -0.0179543
vt 10.9121 -1.89977
v 1.05711 0.986877 -0.32744
vt 11.1794 -1.89977
f 5/5/2 2/6/2 1/7/2 6/8/2 

usemtl FrontColor
vt 21.2523 28.0132
vn 1 -4.7429e-12 -1.05578e-11
vt 21.8054 27.8061
v -1.01289 0.981616 -0.341487
vt 25.8652 38.6463
vt 25.3122 38.8534
f 2/9/3 3/10/3 7/11/3 5/12/3 

usemtl Material01
v -1.01289 0.54 -0.181436
vt 2.04444 1.08
vn 1 -8.72743e-13 -3.5677e-14
vt 2.1583 1.41255
vt 2.13021 1.42307
f 8/13/4 3/14/4 2/15/4

v -1.01289 0.984545 -0.347923
vt 2.37741 1.96909
f 3/14/4 8/13/4 9/16/4

vt -20.7976 2.67782
vn -5.49053e-12 -0.350723 -0.936479
vt -20.7976 1.72843
v -1.06289 0.54 -0.181436
vt -20.6976 1.72843
v -1.06289 0.74 -0.256338
vt -20.6976 2.15556
v -1.06289 0.788525 -0.274511
vt -20.6976 2.25919
v -1.06289 0.791657 -0.275684
vt -20.6976 2.26588
v -1.06289 0.984545 -0.347923
vt -20.6976 2.67782
f 9/17/5 8/18/5 10/19/5 11/20/5 12/21/5 13/22/5 14/23/5 

vt -20.6976 2.04444
vn -3.19712e-15 -1 5.52092e-16
vt -20.7976 2.04444
v -1.01289 0.54 0.315489
vt -20.7976 1.05059
v -1.06289 0.54 0.315489
vt -20.6976 1.05059
v -1.06289 0.54 0.265489
vt -20.6976 1.15059
f 10/24/6 8/25/6 15/26/6 16/27/6 17/28/6 

v -1.01289 0.545 0.310489
vt 1.06059 1.09
vt 1.05059 1.08
f 18/29/4 15/30/4 8/13/4

v -1.01289 0.59 0.315489
vt 1.05059 1.18
f 15/30/4 18/29/4 19/31/4

v -1.01289 0.585 0.310489
vt 1.06059 1.17
f 20/32/4 19/31/4 18/29/4

v -1.01289 0.59 -0.173466
vt 2.0285 1.18
f 19/31/4 20/32/4 21/33/4

v -1.01289 0.585 -0.173466
vt 2.0285 1.17
f 21/33/4 20/32/4 22/34/4

usemtl Material04
vt 10.4579 -0.0184515
vn 0 1 -0
v 1.05711 0.585 0.310489
vt 10.4579 -1.90027
v 1.05711 0.585 -0.173466
vt 10.8979 -1.90027
vt 10.8979 -0.0184515
f 20/35/7 23/36/7 24/37/7 22/38/7 

v 1.05711 0.545 0.310489
vt 10.4161 -1.90103
vn 0 0 1
vt 10.4525 -1.90103
vt 10.4525 -0.0192079
vt 10.4161 -0.0192079
f 25/39/8 23/40/8 20/41/8 18/42/8 

usemtl FrontColor
vt -19.2502 23.0315
vn -1 0 -0
v 1.05711 0.545 -0.173466
vt -19.2502 21.4567
vt -0.19685 21.4567
vt -0.19685 23.0315
f 24/43/9 26/44/9 25/45/9 23/46/9 

usemtl Material04
v -1.01289 0.545 -0.173466
vt 10.9469 -0.0202323
vn 0 0 -1
vt 10.9105 -0.0202323
vt 10.9105 -1.90205
vt 10.9469 -1.90205
f 27/47/10 22/48/10 24/49/10 26/50/10 

usemtl FrontColor
vt 19.2502 21.4567
vn 1 0 -0
vt 19.2502 23.0315
vt 0.19685 23.0315
vt 0.19685 21.4567
f 27/51/11 22/52/11 20/53/11 18/54/11 

usemtl Material01
vt 2.0285 1.09
f 27/55/4 8/13/4 22/34/4

f 18/29/4 8/13/4 27/55/4

usemtl Material04
vt 10.4418 -1.90277
vn -2.90625e-17 -1 8.7894e-17
vt 10.4418 -0.0209485
vt 10.0019 -0.0209483
vt 10.0019 -1.90277
f 25/56/12 18/57/12 27/58/12 26/59/12 

usemtl Material01
v 1.05711 0.54 -0.181436
vt -2.04444 1.08
vn -1 8.44219e-13 7.63375e-15
vt -1.06059 1.09
vt -2.0285 1.09
f 28/60/13 25/61/13 26/62/13

v 1.05711 0.54 0.315489
vt -1.05059 1.08
f 29/63/13 25/61/13 28/60/13

vt -1.06059 1.17
f 25/61/13 29/63/13 23/64/13

v 1.05711 0.59 0.315489
vt -1.05059 1.18
f 30/65/13 23/64/13 29/63/13

v 1.05711 0.59 -0.173466
vt -2.0285 1.18
f 23/64/13 30/65/13 31/66/13

v 1.10711 0.59 0.265489
vt 25.0376 1.15059
vn 1.42577e-12 1 -1.81421e-13
v 1.10711 0.59 -0.173466
vt 25.0376 2.0285
vt 24.9376 2.0285
vt 24.9376 1.05059
v 1.10711 0.59 0.315489
vt 25.0376 1.05059
f 32/67/14 33/68/14 31/69/14 30/70/14 34/71/14 

v 1.10711 0.54 0.265489
vt 1.15059 1.08
vn 1 3.12772e-12 -1.00624e-15
v 1.10711 0.54 -0.181436
v 1.10711 0.74 -0.256338
vt 2.19424 1.48
v 1.10711 0.74 -0.229643
vt 2.14085 1.48
vt 1.15059 1.18
f 35/72/15 36/13/15 37/73/15 38/74/15 33/33/15 32/75/15 

vt -24.9376 2.04444
vn -1.39437e-14 -1 1.47563e-15
vt -25.0376 2.04444
vt -25.0376 1.15059
v 1.10711 0.54 0.315489
vt -25.0376 1.05059
vt -24.9376 1.05059
f 28/76/16 36/77/16 35/78/16 39/79/16 29/80/16 

vt -25.0376 1.72843
vn 2.71588e-11 -0.350723 -0.936479
vt -24.9376 1.72843
v 1.05711 0.984545 -0.347923
vt -24.9376 2.67782
v 1.10711 0.984545 -0.347923
vt -25.0376 2.67782
v 1.10711 0.791657 -0.275684
vt -25.0376 2.26588
v 1.10711 0.788525 -0.274511
vt -25.0376 2.25919
vt -25.0376 2.15556
f 36/81/17 28/82/17 40/83/17 41/84/17 42/85/17 43/86/17 37/87/17 

vt -2.1583 1.41255
vt -2.37741 1.96909
f 28/60/13 4/88/13 40/89/13

vt -2.13021 1.42307
f 4/88/13 28/60/13 1/90/13

f 26/62/13 1/90/13 28/60/13

vt -2.0285 1.17
f 24/91/13 1/90/13 26/62/13

v 1.05711 0.993313 -0.324511
vt -2.33059 1.98663
f 24/91/13 44/92/13 1/90/13

f 44/92/13 24/91/13 31/66/13

f 23/64/13 31/66/13 24/91/13

vt 24.9376 2.67782
vn -1.16873e-10 0.350723 0.936479
vt 24.9376 1.81649
vt 25.0376 1.81649
vt 25.0376 2.13683
v 1.10711 0.791657 -0.248989
vt 25.0376 2.24716
v 1.10711 0.993313 -0.324511
vt 25.0376 2.67782
f 44/93/18 31/94/18 33/95/18 38/96/18 45/97/18 46/98/18 

vt -2.14085 1.48
vn -1 -1.34332e-11 -9.72015e-13
v 1.10711 0.74 0.265489
vt -1.15059 1.48
vt -1.15059 1.18
v 1.10711 0.791657 0.315489
vt -1.05059 1.58331
vt -2.17954 1.58331
f 38/99/19 47/100/19 32/101/19 34/65/19 48/102/19 45/103/19 

vt -25.0376 2.19424
vn -2.42203e-15 -1 -2.08873e-16
v 1.10711 0.74 -0.274511
vt -25.0376 2.23059
v 1.15711 0.74 -0.274511
vt -25.1376 2.23059
v 1.15711 0.74 0.265489
vt -25.1376 1.15059
vt -25.0376 2.14085
f 37/104/20 49/105/20 50/106/20 51/107/20 47/78/20 38/108/20 

v 1.10711 0.05 -0.274511
vt -2.23059 0.1
vn -1 -1.48611e-12 1.13235e-12
vt -2.23059 1.48
vt -2.19424 1.48
vt -2.23059 1.57705
vt -2.23293 1.58331
v 1.10711 0.791657 -0.324511
vt -2.33059 1.58331
v 1.10711 2.70717e-16 -0.324511
vt -2.33059 -3.7208e-11
v 1.10711 2.70717e-16 0.315489
vt -1.05059 -3.7208e-11
vt -1.15059 1.08
v 1.10711 0.05 0.265489
vt -1.15059 0.1
f 52/109/21 49/110/21 37/111/21 43/112/21 42/113/21 53/114/21 54/115/21 55/116/21 39/63/21 35/117/21 56/118/21 

v 1.15711 0.05 -0.274511
vt 25.1376 0.1
vn -3.60956e-15 0 1
vt 25.1376 1.48
vt 25.0376 1.48
vt 25.0376 0.1
f 57/119/22 50/120/22 49/121/22 52/122/22 

vt 2.23059 0.1
v 1.15711 -3.20593e-31 -0.324511
vt 2.33059 9.02389e-17
vt 2.23059 1.48
f 57/123/11 58/124/11 50/125/11

v 1.15711 0.05 0.265489
vt 1.15059 0.1
f 59/126/11 58/124/11 57/123/11

v 1.15711 -3.20593e-31 0.315489
vt 1.05059 9.02389e-17
f 59/126/11 60/127/11 58/124/11

v 1.15711 0.791657 0.315489
vt 1.05059 1.58331
f 60/127/11 59/126/11 61/128/11

vt 1.15059 1.48
f 51/129/11 61/128/11 59/126/11

v 1.15711 0.791657 -0.324511
vt 2.33059 1.58331
f 61/128/11 51/129/11 62/130/11

f 62/130/11 51/129/11 50/125/11

f 62/130/11 50/125/11 58/124/11

vt -25.1376 3.25767e-13
vn -8.85219e-13 -1.3974e-13 -1
vt -25.0376 3.26309e-13
vt -25.0376 1.58331
vt -25.1376 1.58331
f 58/131/23 54/132/23 53/133/23 62/134/23 

vn -5.41434e-15 -1 -0
vt -25.0376 2.33059
vt -25.1376 2.33059
vt -25.1376 1.05059
f 55/79/24 54/135/24 58/136/24 60/137/24 

vt 25.0376 1.18
vt 25.0376 1.08
vt 25.0376 6.31672e-16
vt 25.1376 9.02389e-17
vt 25.1376 1.58331
vt 25.0376 1.58331
f 34/138/8 39/139/8 55/140/8 60/141/8 61/142/8 48/143/8 

usemtl FrontColor
vt 0 21.2598
vt 1.9685 21.2598
vt 1.9685 23.2283
vt 0 23.2283
f 39/144/11 35/145/11 32/146/11 34/147/11 

usemtl Material01
vt -25.1376 0.1
vt -25.0376 0.1
vt -25.0376 1.08
vt -25.0376 1.18
vt -25.0376 1.48
vt -25.1376 1.48
f 59/148/10 56/149/10 35/150/10 32/151/10 47/152/10 51/153/10 

vt 25.1376 1.15059
vn -1.69198e-16 1 -1.56665e-17
vt 25.1376 2.23059
vt 25.0376 2.23059
f 59/154/25 57/155/25 52/156/25 56/67/25 

vt 24.9376 1.18
vt 24.9376 1.08
f 34/138/8 30/157/8 29/158/8 39/139/8 

vt 25.1376 2.33059
vn -1.52712e-11 1 -5.13942e-13
vt 25.0376 2.33059
vt 25.0376 2.23293
v 1.10711 0.791657 -0.274511
vt 25.0376 2.17954
vt 25.1376 1.05059
f 62/159/26 53/160/26 42/161/26 63/156/26 45/162/26 48/71/26 61/163/26 

vt 2.33059 1.98663
vn 1 -2.05222e-11 -2.25885e-11
vt 2.17954 1.58331
vt 2.23059 1.58331
vt 2.23293 1.58331
f 46/164/27 45/165/27 63/166/27 42/167/27 41/16/27 

usemtl FrontColor
vt 22.2235 31.1676
vn 1 2.20349e-11 -1.9755e-11
vt 21.4619 29.1339
vt 22.5129 29.1339
vt 23.2283 31.0443
vt 23.2283 31.1676
f 45/168/28 38/169/28 37/170/28 43/171/28 63/172/28 

vt 23.2745 31.1676
vn 1 5.45407e-10 1.43415e-09
f 42/173/29 63/172/29 43/171/29

usemtl Material01
vt -24.9376 -1.53579
vn 8.41565e-13 0.936479 -0.350723
vt -24.9376 -1.48579
vt -25.0376 -1.48579
vt -25.0376 -1.53579
f 40/174/30 44/175/30 46/176/30 41/177/30 

vt -2.33644 1.97375
f 6/178/13 44/92/13 40/89/13

f 1/90/13 44/92/13 6/178/13

v 1.05711 0.981616 -0.341487
vt -2.36454 1.96323
f 6/178/13 40/89/13 64/179/13

f 40/89/13 4/88/13 64/179/13

usemtl Material04
vt 11.542 0.0311207
vn -1.0121e-11 -0.350723 -0.936479
vt 11.2748 0.0311208
vt 11.2748 -1.8507
vt 11.542 -1.8507
f 3/180/31 7/181/31 64/182/31 4/183/31 

usemtl Material01
vt 2.36454 1.96323
f 3/14/4 9/16/4 7/184/4

vt 2.33644 1.97375
f 9/16/4 5/185/4 7/184/4

v -1.01289 0.993313 -0.324511
f 65/164/4 5/185/4 9/16/4

f 65/164/4 2/15/4 5/185/4

f 21/33/4 2/15/4 65/164/4

f 21/33/4 8/13/4 2/15/4

f 22/34/4 8/13/4 21/33/4

v -1.06289 0.74 -0.229643
vt 20.6976 2.13683
vn 3.01243e-12 0.350723 0.936479
v -1.06289 0.59 -0.173466
vt 20.6976 1.81649
vt 20.7976 1.81649
vt 20.7976 2.67782
v -1.06289 0.993313 -0.324511
vt 20.6976 2.67782
v -1.06289 0.791657 -0.248989
vt 20.6976 2.24716
f 66/186/32 67/187/32 21/188/32 65/189/32 68/190/32 69/191/32 

v -1.06289 0.59 0.265489
vn -1 2.50139e-13 1.18977e-14
f 70/101/33 67/66/33 66/99/33 11/111/33 10/60/33 17/117/33 

vt 20.7976 1.05059
vt 20.7976 2.0285
vt 20.6976 2.0285
vt 20.6976 1.15059
v -1.06289 0.59 0.315489
vt 20.6976 1.05059
f 19/192/7 21/193/7 67/194/7 70/195/7 71/196/7 

usemtl FrontColor
vt -1.9685 23.2283
vt -1.9685 21.2598
f 71/147/9 70/197/9 17/198/9 16/144/9 

usemtl Material01
vn 1 -5.98168e-14 8.42799e-14
v -1.06289 0.74 0.265489
v -1.06289 0.791657 0.315489
f 70/75/34 72/129/34 66/74/34 69/165/34 73/128/34 71/31/34 

v -1.11289 0.05 0.265489
vt -20.5976 0.1
vn -1.26905e-15 2.15682e-16 -1
v -1.11289 0.74 0.265489
vt -20.5976 1.48
vt -20.6976 1.48
vt -20.6976 1.18
vt -20.6976 1.08
v -1.06289 0.05 0.265489
vt -20.6976 0.1
f 74/199/35 75/200/35 72/201/35 70/202/35 17/203/35 76/204/35 

vn -1 1.1853e-15 -6.71872e-15
v -1.11289 -3.20593e-31 0.315489
vt -1.05059 2.45047e-14
f 74/118/36 77/205/36 75/100/36

v -1.11289 -3.20593e-31 -0.324511
vt -2.33059 2.45047e-14
f 77/205/36 74/118/36 78/206/36

v -1.11289 0.05 -0.274511
f 78/206/36 74/118/36 79/109/36

vn -1.20389e-28 1 -3.1333e-17
v -1.06289 0.05 -0.274511
vt 20.6976 2.23059
vt 20.5976 2.23059
vt 20.5976 1.15059
f 76/195/37 80/207/37 79/208/37 74/209/37 

vn 1 -3.37307e-14 2.0137e-14
v -1.06289 0.74 -0.274511
v -1.06289 2.70717e-16 0.315489
vt 1.05059 6.98778e-13
v -1.06289 2.70717e-16 -0.324511
vt 2.33059 6.98778e-13
v -1.06289 0.791657 -0.324511
vt 2.23059 1.57705
f 11/73/38 81/125/38 80/123/38 76/126/38 17/72/38 16/30/38 82/210/38 83/211/38 84/130/38 13/167/38 12/212/38 

vt -20.5976 1.15059
vn 2.3164e-16 -1 -3.46337e-16
v -1.11289 0.74 -0.274511
vt -20.5976 2.23059
vt -20.6976 2.23059
vt -20.6976 2.19424
vt -20.6976 2.14085
f 75/213/39 85/214/39 81/215/39 11/216/39 66/217/39 72/28/39 

v -1.11289 0.791657 -0.324511
f 75/100/36 86/114/36 85/110/36

v -1.11289 0.791657 0.315489
f 75/100/36 87/102/36 86/114/36

f 87/102/36 75/100/36 77/205/36

vt 20.5976 9.02389e-17
vt 20.6976 6.31672e-16
vt 20.6976 1.08
vt 20.6976 1.18
vt 20.6976 1.58331
vt 20.5976 1.58331
f 77/218/8 82/219/8 16/220/8 71/221/8 73/222/8 87/223/8 

vt -20.5976 2.33059
vn 5.41434e-15 -1 -0
vt -20.6976 2.33059
vt -20.5976 1.05059
f 78/224/40 83/225/40 82/27/40 77/226/40 

vt -20.5976 1.58331
vn -6.12277e-14 -1.14649e-15 -1
vt -20.6976 1.58331
vt -20.6976 3.30368e-15
vt -20.5976 2.76224e-15
f 86/227/41 84/228/41 83/229/41 78/230/41 

vt 20.5976 1.05059
vt 20.6976 2.17954
v -1.06289 0.791657 -0.274511
vt 20.6976 2.23293
vt 20.6976 2.33059
vt 20.5976 2.33059
f 87/231/7 73/196/7 69/232/7 88/207/7 13/233/7 84/234/7 86/235/7 

usemtl FrontColor
vn 1 -1.92219e-12 -2.90802e-12
f 69/168/42 66/169/42 11/170/42 12/171/42 88/172/42 

vn 1 -1.3556e-12 -2.70128e-12
f 13/173/43 88/172/43 12/171/43

usemtl Material01
vn -1 4.59566e-12 7.82108e-12
vt -2.23059 1.58331
f 69/103/44 68/92/44 14/89/44 13/113/44 88/236/44 

vt -20.6976 -1.53579
vn 1.01765e-12 0.936479 -0.350723
vt -20.6976 -1.48579
vt -20.7976 -1.48579
vt -20.7976 -1.53579
f 14/237/45 68/238/45 65/239/45 9/240/45 

f 78/206/36 79/109/36 86/114/36

f 85/110/36 86/114/36 79/109/36

vt 20.5976 1.48
vn 7.68475e-12 0 1
vt 20.5976 0.1
vt 20.6976 0.1
vt 20.6976 1.48
f 85/241/46 79/242/46 80/243/46 81/244/46 

vt 20.7976 1.18
vt 20.7976 1.08
f 19/245/8 71/221/8 16/220/8 15/246/8 

usemtl Material04
vt 11.2526 0.0180594
vn 9.23356e-13 0.936479 -0.350723
vt 11.239 0.0180594
vt 11.239 -1.86376
vt 11.2526 -1.86376
f 7/247/47 5/248/47 6/249/47 64/250/47 

