# Alias OBJ Model File
# Exported from SketchUp, (c) 2000-2012 Trimble Navigation Limited
# File units = meters

mtllib Lavička2.mtl

g Mesh1 Group1 Model

usemtl Material02
v -1.11289 -3.20593e-31 0.315489
vt 11.0849 9.02389e-17
vn 0 0 1
v -1.06289 2.70717e-16 0.315489
vt 11.1849 6.31672e-16
v -1.06289 0.59 0.315489
vt 11.1849 1.18
v -1.11289 0.59 0.315489
vt 11.0849 1.18
f 1/1/1 2/2/1 3/3/1 4/4/1 

v 1.15711 -3.20593e-31 -0.324511
vt -15.6249 2.33059
vn -1.32646e-34 -1 1.7835e-17
v 1.15711 -3.20593e-31 0.315489
vt -15.6249 1.05059
v 1.10711 2.70717e-16 0.315489
vt -15.5249 1.05059
v 1.10711 2.70717e-16 -0.274511
vt -15.5249 2.23059
v -1.06289 2.70717e-16 -0.274511
vt -11.1849 2.23059
vt -11.1849 1.05059
vt -11.0849 1.05059
v -1.11289 -3.20593e-31 -0.324511
vt -11.0849 2.33059
f 5/5/2 6/6/2 7/7/2 8/8/2 9/9/2 2/10/2 1/11/2 10/12/2 

v 1.15711 0.59 0.315489
vt 1.05059 1.18
vn 1 0 -0
vt 1.05059 9.02389e-17
vt 2.33059 9.02389e-17
v 1.15711 0.05 -0.324511
vt 2.33059 0.1
v 1.15711 0.05 0.265489
vt 1.15059 0.1
v 1.15711 0.54 0.265489
vt 1.15059 1.08
v 1.15711 0.54 -0.324511
vt 2.33059 1.08
v 1.15711 0.59 -0.324511
vt 2.33059 1.18
f 11/13/3 6/14/3 5/15/3 12/16/3 13/17/3 14/18/3 15/19/3 16/20/3 

v 1.10711 0.59 0.315489
vt 15.5249 1.18
vt 15.5249 6.31672e-16
vt 15.6249 9.02389e-17
vt 15.6249 1.18
f 17/21/1 7/22/1 6/23/1 11/24/1 

v 1.10711 0.585 0.310489
vt -1.06059 1.17
vn -1 0 -0
v 1.10711 0.545 0.310489
vt -1.06059 1.09
v 1.10711 0.545 0.265489
vt -1.15059 1.09
v 1.10711 0.54 0.265489
vt -1.15059 1.08
v 1.10711 0.05 0.265489
vt -1.15059 0.1
v 1.10711 0.05 -0.274511
vt -2.23059 0.1
vt -2.23059 6.31672e-16
vt -1.05059 6.31672e-16
vt -1.05059 1.18
v 1.10711 0.59 -0.274511
vt -2.23059 1.18
v 1.10711 0.585 -0.274511
vt -2.23059 1.17
f 18/25/4 19/26/4 20/27/4 21/28/4 22/29/4 23/30/4 8/31/4 7/32/4 17/33/4 24/34/4 25/35/4 

usemtl FrontColor
v 1.10711 0.545 -0.274511
vt 23.2283 21.4567
vt 23.2283 23.0315
vt 0.19685 23.0315
vt 0.19685 21.4567
vt 1.9685 21.4567
f 26/36/3 25/37/3 18/38/3 19/39/3 20/40/3 

v -1.06289 0.545 -0.274511
vt -1.9685 21.4567
vn 0 0 -1
v -1.06289 0.585 -0.274511
vt -1.9685 23.0315
vt -87.4016 23.0315
vt -87.4016 21.4567
f 27/41/5 28/42/5 25/43/5 26/44/5 

v -1.06289 0.585 0.310489
vt -0.19685 23.0315
vt -23.2283 23.0315
vt -23.2283 21.4567
v -1.06289 0.545 0.310489
vt -0.19685 21.4567
f 29/45/4 28/46/4 27/47/4 30/48/4 

usemtl Material03
vt 5.08098 0.998808
vn 0 1 -0
vt 5.08098 0.46699
vt 7.05371 0.46699
vt 7.05371 0.998808
f 28/49/6 29/50/6 18/51/6 25/52/6 

usemtl Material02
vt 1.05059 6.31672e-16
vt 2.23059 6.31672e-16
v -1.06289 0.05 -0.274511
vt 2.23059 0.1
v -1.06289 0.05 0.265489
v -1.06289 0.54 0.265489
v -1.06289 0.54 -0.274511
vt 2.23059 1.08
vt 2.23059 1.09
vt 1.06059 1.09
vt 1.06059 1.17
vt 2.23059 1.17
v -1.06289 0.59 -0.274511
vt 2.23059 1.18
f 2/53/3 9/54/3 31/55/3 32/17/3 33/18/3 34/56/3 27/57/3 30/58/3 29/59/3 28/60/3 35/61/3 3/13/3 

vt 11.1849 0.1
vt 15.5249 0.1
f 31/62/1 9/2/1 8/22/1 23/63/1 

v -1.11289 0.05 0.265489
vt 11.0849 1.15059
vn 7.8819e-49 1 -2.98297e-17
vt 11.1849 1.15059
vt 11.1849 2.23059
vt 15.5249 2.23059
vt 15.5249 1.15059
vt 15.6249 1.15059
vt 15.6249 2.33059
v -1.11289 0.05 -0.324511
vt 11.0849 2.33059
f 36/64/7 32/65/7 31/66/7 23/67/7 22/68/7 13/69/7 12/70/7 37/71/7 

v -1.11289 0.54 0.265489
vt -11.0849 1.08
vt -11.1849 1.08
vt -11.1849 0.1
vt -11.0849 0.1
f 38/72/5 33/73/5 32/74/5 36/75/5 

vt -15.6249 1.15059
vn -1.72983e-48 -1 -6.5467e-17
vt -15.5249 1.15059
v 1.10711 0.54 -0.274511
vt -11.1849 1.15059
vt -11.0849 1.15059
v -1.11289 0.54 -0.324511
f 14/76/8 21/77/8 39/8/8 34/9/8 33/78/8 38/79/8 40/12/8 15/5/8 

vt -15.6249 0.1
vt -15.5249 0.1
vt -15.5249 1.08
vt -15.6249 1.08
f 13/80/5 22/81/5 21/82/5 14/83/5 

usemtl FrontColor
vt 1.9685 21.2598
vt 23.2283 21.2598
f 21/84/3 39/85/3 26/36/3 20/40/3 

usemtl Material02
vt 11.1849 1.08
vt 15.5249 1.08
vt 15.5249 1.09
vt 11.1849 1.09
f 34/86/1 39/87/1 26/88/1 27/89/1 

usemtl Material03
vt 7.05754 -0.150955
vn -7.29477e-34 -1 -7.02497e-17
vt 7.05754 0.339954
vt 7.05754 0.380864
vt 5.08481 0.380864
vt 5.08481 -0.150955
f 26/90/9 20/91/9 19/92/9 30/93/9 27/94/9 

vt 7.05124 0.421265
vt 7.05124 0.457629
vt 5.07851 0.457629
vt 5.07851 0.421265
f 19/95/1 18/96/1 29/97/1 30/98/1 

usemtl Material02
v -1.11289 0.59 -0.324511
vt -2.33059 1.18
vt -2.33059 1.08
vt -2.33059 0.1
vt -2.33059 9.02389e-17
vt -1.05059 9.02389e-17
f 41/99/4 40/100/4 38/28/4 36/29/4 37/101/4 10/102/4 1/103/4 4/33/4 

vt -15.6249 1.18
vt -11.0849 1.18
f 16/104/5 15/83/5 40/72/5 41/105/5 

vt 11.0849 1.05059
vt 11.1849 1.05059
vt 15.5249 1.05059
vt 15.6249 1.05059
f 4/106/6 3/107/6 35/66/6 24/67/6 17/108/6 11/109/6 16/70/6 41/71/6 

vt 11.1849 1.17
vt 15.5249 1.17
f 24/21/1 35/3/1 28/110/1 25/111/1 

vt -15.6249 9.02389e-17
vt -11.0849 9.02389e-17
f 37/75/5 12/80/5 5/112/5 10/113/5 

