# Alias OBJ Model File
# Exported from SketchUp, (c) 2000-2012 Trimble Navigation Limited
# File units = meters

mtllib Lavička1.mtl

g Mesh1 Group1 Model

usemtl Material05
v -1.11289 0.2 -0.324511
vt -1.48897 0.197098
vn 0 -1 -0
v -1.0247 0.2 -0.236318
vt -1.38142 0.0895456
v -1.11289 0.2 0.315489
vt -0.70848 0.197098
f 1/1/1 2/2/1 3/3/1

v 1.15711 0.2 -0.324511
vt -1.48897 -2.57119
f 2/2/1 1/1/1 4/4/1

v 1.15711 0.59 -0.324511
vt -0.20131 -3.35316
vn 0 0 -1
vt -0.67692 -3.35316
vt -0.67692 -6.12145
v -1.11289 0.59 -0.324511
vt -0.201311 -6.12145
f 5/5/2 4/6/2 1/7/2 6/8/2 

v 1.15711 0.59 0.315489
vt -0.20131 -2.57267
vn 1 0 -0
v 1.15711 0.2 0.315489
vt -0.676919 -2.57267
f 7/9/3 8/10/3 4/6/3 5/5/3 

v -1.11289 0.59 0.315489
vt -0.201309 0.19562
vn 0 0 1
vt -0.676919 0.19562
f 9/11/4 3/12/4 8/10/4 7/9/4 

vn -1 0 -0
vt -0.676921 -6.90194
vt -0.201311 -6.90194
f 6/8/5 1/7/5 3/13/5 9/14/5 

vt -0.196128 -2.5717
vn 0 1 -0
vt 0.58436 -2.5717
vt 0.584361 0.196591
vt -0.196127 0.19659
f 7/15/6 5/16/6 6/17/6 9/18/6 

v -1.0247 0.2 0.227295
vt -0.816033 0.0895455
vt -0.708481 -2.57119
f 3/3/1 10/19/1 8/20/1

f 10/19/1 3/3/1 2/2/1

usemtl _4
vt -0.662588 0.181818
vt -1.08405 0.181818
v -1.0247 0 -0.236318
vt -1.08405 0
v -1.0247 0 0.227295
vt -0.662588 0
f 10/21/5 2/22/5 11/23/5 12/24/5 

vt -0.674878 0.181818
v 1.06892 0.2 -0.236318
vt -2.57816 0.181818
v 1.06892 0 -0.236318
vt -2.57816 0
vt -0.674878 0
f 2/25/2 13/26/2 14/27/2 11/28/2 

usemtl Material05
vt -1.38142 -2.46364
f 2/2/1 4/4/1 13/29/1

v 1.06892 0.2 0.227295
vt -0.816034 -2.46364
f 13/29/1 4/4/1 15/30/1

f 8/20/1 15/30/1 4/4/1

f 8/20/1 10/19/1 15/30/1

usemtl _4
vt 2.57816 0.181818
vt 0.674878 0.181818
vt 0.674878 0
v 1.06892 0 0.227295
vt 2.57816 0
f 15/31/4 10/32/4 12/33/4 16/34/4 

usemtl FrontColor
vt -3.47218 3.47218
vt -3.47218 21.7247
vt -85.8979 21.7247
vt -85.8979 3.47218
f 12/35/1 11/36/1 14/37/1 16/38/1 

usemtl _4
vt 1.08405 0.181818
vt 0.662588 0.181818
vt 0.662588 0
vt 1.08405 0
f 13/39/3 15/40/3 16/41/3 14/42/3 

